<?xml version="1.0" encoding="utf-8"?>
<svg xmlns="http://www.w3.org/2000/svg">
<symbol id="new_add" viewBox="0 0 100 100"><g fill="none" stroke="#c7c7c7" stroke-linecap="round" stroke-linejoin="round" stroke-width="6.89" data-name="uuid-aa8f506a-f647-4abc-b6bb-d54c7a4928ac"><path d="M91 50c0 22.65-18.35 41-41 41S9 72.65 9 50 27.36 9 50 9s41 18.35 41 41h0Z" data-name="uuid-dda417fd-509d-46cf-910c-20097d487b3f"/><path d="M50.01 33.6v32.8" data-name="uuid-ef09466d-c817-4560-b25c-087ff1ac7850"/><path d="M33.61 50h32.8" data-name="uuid-83afecf7-6894-4aff-82fe-215d596c041a"/></g>
</symbol>
<symbol id="new_blue-motion" viewBox="0 0 100 100"><path d="M71.76 45.41c.58.68.92 1.52.97 2.41 0 .9-.34 1.77-.97 2.42-.64.64-1.53.99-2.44.96h-7.31l-4.98-4.83-4.49 6.76 10.23 19.8c.34.42.58.92.68 1.45.12.38.19.77.2 1.16a4.34 4.34 0 0 1-1.36 3.19c-1.72 1.76-4.56 1.8-6.34.1l-.1-.1a.76.76 0 0 1-.39-.38c-.4-.47-.68-1.04-.79-1.65l-8.49-16.22-2.84 10.81H26.86a4.816 4.816 0 0 1-3.12-1.36c-.85-.84-1.31-2-1.27-3.19-.04-1.19.42-2.34 1.27-3.18.7-.77 1.69-1.23 2.73-1.26H37l3.03-12.36 4.98-8.31h-4.98l-4.11 5.02-.79.88a3.356 3.356 0 0 1-4.69-.2c-.65-.6-1.01-1.45-.97-2.33 0-.53.09-1.06.3-1.55l.79-.97 6.05-8.31h14.67a6.747 6.747 0 0 1-1.94-4.82c-.11-3.74 2.87-6.85 6.65-6.96h.28c1.84-.03 3.62.71 4.88 2.04a6.777 6.777 0 0 1 2.15 4.92c.01 1.84-.77 3.6-2.15 4.83-.91.97-2.1 1.65-3.41 1.95L65 44.4h4.29c.91.02 1.78.36 2.44.97v.02Zm-51.6-19.9a19.726 19.726 0 0 0-5.24 12.74c-.06.42-.08.85-.07 1.28-.05 4.38 1.31 8.66 3.87 12.23.38.52 1.11.64 1.64.27.53-.37.65-1.1.28-1.62-2.28-3.18-3.49-7-3.45-10.9 0-.35.01-.69.06-1.04a17.64 17.64 0 0 1 4.67-11.45c.43-.48.39-1.21-.09-1.64a1.17 1.17 0 0 0-1.65.09v.02Zm59.69 0c-.41-.5-1.14-.57-1.64-.17s-.58 1.13-.17 1.63c.02.03.05.06.07.08 2.87 3.14 4.54 7.17 4.72 11.4v1.08c.04 3.9-1.17 7.71-3.45 10.9a1.159 1.159 0 0 0 .96 1.83c.38 0 .74-.18.95-.49 2.56-3.57 3.92-7.85 3.88-12.23V38.4c-.19-4.78-2.08-9.34-5.33-12.89h.01Zm-69.51-5.14a28.208 28.208 0 0 0-6.55 17.84c-.06.35-.09.7-.08 1.05A28.959 28.959 0 0 0 9 56.36c.35.54 1.08.69 1.62.34.54-.35.7-1.07.34-1.61-.01-.02-.03-.04-.04-.06a26.769 26.769 0 0 1-4.87-15.77c0-.27.02-.53.06-.79a26.27 26.27 0 0 1 6.06-16.64c.41-.5.33-1.23-.18-1.64-.51-.4-1.25-.33-1.66.17Zm79.3 0c-.41-.5-1.14-.57-1.64-.17-.5.4-.58 1.13-.17 1.63 3.88 4.7 6.04 10.56 6.13 16.63v.81c.09 5.63-1.61 11.15-4.87 15.77-.37.52-.24 1.24.28 1.62.19.14.43.21.67.21.38 0 .74-.18.96-.49a28.938 28.938 0 0 0 5.29-17.1v-.84a28.944 28.944 0 0 0-6.65-18.06Z" data-name="Path 92"/>
</symbol>
<symbol id="new_blue-tick" viewBox="0 0 100 100"><g data-name="Group 177"><g data-name="Ellipse 29"><circle cx="59.84" cy="50" r="37.65" fill="#515356"/><circle cx="59.84" cy="50" r="34.07" fill="none" stroke="#3caacb" stroke-width="7.17"/></g></g><g fill="#3caacb" data-name="Polygon 3"><path d="m34.62 74.67-30.31-4.8L23 49.94l11.62 24.73Z"/><path d="M22.76 51.52 6.13 69.25l26.96 4.27-10.34-22m.5-3.15 12.9 27.46L2.5 70.5l20.75-22.13Z"/></g>
</symbol>
<symbol id="new_fan" viewBox="0 0 100 100"><path  d="M50.45 8.4c-.3 0-.59.02-.89.09-14.87 3.3-24.37 17.88-21.38 32.81.49 2.87 1.42 5.65 2.75 8.24l-19.88-2.21h-.45a5.117 5.117 0 0 0-5.1 5.11c0 .3.02.59.09.89C8.89 68.2 23.47 77.7 38.4 74.71c2.87-.49 5.65-1.42 8.24-2.76l-2.21 19.88v.45c0 2.82 2.29 5.1 5.11 5.11.3 0 .59-.02.89-.09C65.3 94 74.8 79.42 71.81 64.49c-.49-2.87-1.42-5.65-2.76-8.24l19.88 2.21h.45c2.82 0 5.1-2.29 5.11-5.11 0-.3-.02-.59-.09-.89-3.3-14.87-17.88-24.37-32.81-21.38-2.87.49-5.65 1.42-8.24 2.76l2.21-19.88v-.45c0-2.82-2.29-5.1-5.11-5.11ZM50 47.33a5.56 5.56 0 0 1 0 11.12 5.56 5.56 0 0 1 0-11.12Z" data-name="Path 91"/>
</symbol>
<symbol id="new_fire" viewBox="0 0 100 100"><path fill="#cb3434" d="M48.35 47.52c-1.06 2.13-2.13 4.24-3.13 6.36-2.86 6.15-5.77 12.31-8.58 18.5a22.557 22.557 0 0 0-.5 18.94c.48 1.1 1.1 2.13 1.69 3.19.44.56.44 1.34 0 1.89-.5.52-1.31.57-1.86.12a29.203 29.203 0 0 1-15.13-22.79c-.74-7.47.92-14.98 4.74-21.45 1.63-2.93 3.58-5.68 5.45-8.43A74.319 74.319 0 0 0 42.3 19.27c1.19-4.73 1.65-9.6 1.39-14.47-.1-.6.2-1.2.74-1.48.55-.27 1.2-.15 1.63.3 3.74 3.1 6.73 7.01 8.75 11.42a40.832 40.832 0 0 1 3.96 17.75c-.1 3.31.19 6.62.89 9.86.34 1.34.87 2.63 1.57 3.81.83 1.43 2.04 1.33 2.69-.18.53-1.31.9-2.68 1.06-4.08.13-1.49.16-2.98.09-4.47 0-.68.09-1.27.77-1.6.6-.27 1.31-.1 1.72.42 2.7 2.64 4.86 5.77 6.36 9.23a53.396 53.396 0 0 1 5.41 24.68 30.5 30.5 0 0 1-6.1 17.96 28.839 28.839 0 0 1-9.7 7.99c-.55.38-1.3.29-1.75-.21-.44-.44-.51-1.11-.18-1.63 3.26-5.64 3.7-12.48 1.21-18.5-1.24-3.5-3.01-6.8-5.25-9.77a62.006 62.006 0 0 1-8.91-18.02c-.07-.23-.15-.46-.24-.68 0-.03-.06-.06-.15-.12l.07.04Z" data-name="uuid-1e448002-2e8d-43c3-a30b-edb8000de63b"/>
</symbol>
<symbol id="new_green-motion" viewBox="0 0 100 100"><path fill="#43be5f" d="M71.78 45.34c.58.69.92 1.54.97 2.43 0 .91-.34 1.79-.97 2.45-.64.65-1.53 1.01-2.45.97h-7.32l-4.98-4.88-4.49 6.84 10.24 20.02c.34.43.57.93.68 1.46.13.38.19.78.2 1.18a4.45 4.45 0 0 1-1.36 3.24 4.488 4.488 0 0 1-6.35.1l-.1-.1a.8.8 0 0 1-.39-.38c-.41-.48-.67-1.05-.78-1.67l-8.5-16.4-2.83 10.94H26.84a4.83 4.83 0 0 1-3.13-1.37 4.346 4.346 0 0 1-1.27-3.24c-.04-1.2.42-2.37 1.27-3.22a3.79 3.79 0 0 1 2.74-1.27h10.54l3.03-12.5 4.97-8.4h-4.97l-4.11 5.07-.78.9a3.32 3.32 0 0 1-4.69-.2c-.65-.6-1.01-1.46-.97-2.34 0-.54.1-1.07.3-1.56l.78-.98 6.07-8.4h14.69a6.873 6.873 0 0 1-1.95-4.87c-.1-3.78 2.88-6.93 6.66-7.03h.28c1.85-.03 3.62.71 4.88 2.06a6.855 6.855 0 0 1 2.15 4.98 6.55 6.55 0 0 1-2.15 4.88c-.91.99-2.1 1.67-3.41 1.97l7.27 8.36h4.3c.91.02 1.78.36 2.45.98h-.02ZM20.13 25.23c-3.23 3.53-5.09 8.1-5.25 12.88-.06.43-.08.86-.07 1.29-.05 4.43 1.31 8.76 3.88 12.37.38.53 1.11.65 1.64.27.53-.38.65-1.11.27-1.64a18.731 18.731 0 0 1-3.45-11.02c0-.35.01-.71.06-1.05.13-4.29 1.78-8.39 4.67-11.56.42-.5.36-1.23-.14-1.65-.48-.41-1.19-.36-1.62.1Zm59.75 0c-.43-.48-1.17-.52-1.65-.1s-.52 1.17-.1 1.65c2.88 3.17 4.55 7.25 4.73 11.53v1.09c.04 3.95-1.17 7.8-3.45 11.02-.37.53-.25 1.26.28 1.64.2.14.44.22.68.21.38 0 .73-.18.95-.49 2.57-3.61 3.93-7.94 3.88-12.37v-1.15c-.19-4.83-2.08-9.45-5.33-13.03h.01ZM10.3 20.02a28.692 28.692 0 0 0-6.56 18.03c-.06.35-.09.71-.08 1.06A29.491 29.491 0 0 0 8.95 56.4c.37.53 1.11.66 1.64.29.53-.37.66-1.11.29-1.64A27.2 27.2 0 0 1 6.01 39.1c0-.27.01-.54.06-.8.03-6.14 2.18-12.08 6.07-16.83.39-.52.29-1.26-.24-1.64-.49-.37-1.18-.29-1.59.16v.02h-.01Zm79.38 0c-.41-.5-1.14-.58-1.64-.17-.5.41-.58 1.14-.17 1.64a27.225 27.225 0 0 1 6.14 16.81v.83c.1 5.7-1.61 11.28-4.87 15.95-.37.53-.24 1.26.28 1.64.2.14.43.22.67.21.38 0 .74-.18.96-.5a29.442 29.442 0 0 0 5.29-17.29v-.85a29.5 29.5 0 0 0-6.65-18.27Z" data-name="uuid-c0d2bbc3-3159-4c70-a8c2-80cecbf34f57"/>
</symbol>
<symbol id="new_minus" viewBox="0 0 100 100"><g fill="none" stroke="#c7c7c7" stroke-linecap="round" stroke-linejoin="round" stroke-width="6.89" data-name="uuid-51681091-2a63-43a0-8bd2-deb35ea9800d"><path d="M91 50c0 22.65-18.35 41-41 41S9 72.65 9 50 27.36 9 50 9s41 18.35 41 41h0Z" data-name="uuid-cc6b921c-fc32-423a-b3bf-8a5b370701e6"/><path d="M33.61 50h32.8" data-name="uuid-4fccd1eb-a549-4082-b596-c78d856f6784"/></g>
</symbol>
<symbol id="new_red-tick" viewBox="0 0 100 100"><g data-name="Group 176"><g data-name="Ellipse 20"><circle cx="57.24" cy="50" r="35.39" fill="#515356"/><circle cx="57.24" cy="50" r="32.02" fill="none" stroke="#c32f2f" stroke-width="6.74"/></g></g><g fill="#c32f2f" data-name="Polygon 4"><path d="M24.65 48.39 8.94 24.2l25.67.52-9.97 23.67Z"/><path d="m33.36 25.54-22.84-.46L24.49 46.6l8.87-21.06m2.52-1.63L24.81 50.19 7.37 23.33l28.5.58Z"/></g>
</symbol>
<symbol id="new_snowflake" viewBox="0 0 100 100"><path fill="#3caacb" d="m10.42 33.84 14.12 7.61-9.17 2.3c-1.3.27-2.14 1.56-1.87 2.86 0 .04.02.09.03.13a2.58 2.58 0 0 0 2.52 1.81c.23.01.46-.01.69-.08l14.2-3.56 13.87 7.44-13.85 7.48-14.2-3.56c-1.36-.38-2.77.38-3.2 1.72-.34 1.3.44 2.63 1.74 2.97.03 0 .06.01.09.02l9.17 2.3-14.12 7.59a2.337 2.337 0 0 0-.96 3.31c.5.76 1.36 1.21 2.27 1.2.46 0 .91-.11 1.31-.33l14.12-7.61L24.72 76c-.34 1.3.44 2.63 1.74 2.97.03 0 .06.01.09.02.22.05.45.08.69.08 1.15.03 2.18-.71 2.52-1.81l3.8-13.28 13.85-7.48v14.95l-10.4 9.72c-.95.87-1.02 2.35-.15 3.3l.15.15c.5.45 1.16.71 1.83.71.68 0 1.33-.25 1.83-.71l6.7-6.27v15.21c.06 1.4 1.23 2.48 2.63 2.43 1.39.05 2.55-1.04 2.6-2.43V78.34l6.7 6.27c1.05.95 2.65.95 3.69 0 .95-.87 1.02-2.35.15-3.3l-.15-.15-10.4-9.72V56.49l13.85 7.48 3.8 13.27a2.58 2.58 0 0 0 2.52 1.81c.23.01.46-.02.69-.08 1.3-.27 2.14-1.54 1.87-2.84-.01-.05-.02-.1-.04-.15l-2.46-8.56 14.12 7.61c.4.22.85.33 1.31.33.91 0 1.77-.44 2.27-1.2.68-1.09.34-2.52-.75-3.2-.07-.04-.13-.08-.2-.11l-14.12-7.61 9.17-2.3c1.3-.27 2.14-1.54 1.87-2.84-.01-.05-.02-.1-.04-.15a2.643 2.643 0 0 0-3.2-1.72l-14.2 3.56-13.87-7.48 13.85-7.48 14.2 3.56c.22.05.45.08.69.08 1.15.03 2.18-.71 2.52-1.81.34-1.3-.44-2.63-1.74-2.97-.03 0-.06-.01-.09-.02l-9.17-2.3 14.12-7.61a2.337 2.337 0 0 0 1.06-3.13c-.03-.06-.06-.12-.1-.18a2.715 2.715 0 0 0-3.56-.85l-14.12 7.61 2.46-8.56c.34-1.3-.44-2.63-1.74-2.97-.03 0-.06-.01-.09-.02-1.36-.38-2.77.38-3.2 1.72l-3.8 13.27-13.85 7.48V33.18l10.4-9.72c.95-.87 1.02-2.35.15-3.3l-.15-.15a2.745 2.745 0 0 0-3.69 0l-6.7 6.27V11.11a2.6 2.6 0 0 0-2.76-2.44 2.608 2.608 0 0 0-2.44 2.44v15.21l-6.73-6.27a2.745 2.745 0 0 0-3.69 0c-.95.87-1.02 2.35-.15 3.3l.15.15 10.4 9.72v14.95l-13.87-7.48-3.84-13.28a2.643 2.643 0 0 0-3.2-1.72c-1.3.27-2.14 1.56-1.87 2.86 0 .04.02.09.03.13l2.46 8.56-14.09-7.62a2.713 2.713 0 0 0-3.56.9 2.332 2.332 0 0 0 .96 3.31Z" data-name="Path 17"/>
</symbol>
<symbol id="new_thermo-bar" viewBox="0 0 100 225.12"><defs><linearGradient id="a" x1="-659.13" x2="-659.13" y1="8.93" y2="8.34" gradientTransform="matrix(83.85 0 0 -355.93 55318.91 3184.17)" gradientUnits="userSpaceOnUse"><stop offset="0" stop-color="#ef1414" stop-opacity=".87"/><stop offset="1" stop-color="#3caacb"/></linearGradient></defs><path fill="url(#a)" d="m38.62 215.94-11.51-9.17 1.05-1.33 11.59 9.06-1.14 1.44Zm4.83-6.34-11.89-8.66.98-1.37 11.98 8.54-1.07 1.49Zm4.56-6.56-12.27-8.12.92-1.41 12.36 7.99-1.01 1.54Zm4.25-6.77-12.64-7.53.85-1.45 12.72 7.39-.94 1.59Zm3.93-6.98-12.99-6.9.78-1.49 13.07 6.75-.86 1.64Zm3.58-7.18-13.33-6.23.7-1.52 13.4 6.08-.78 1.68Zm3.21-7.36-13.63-5.53.62-1.55 13.7 5.36-.69 1.72Zm2.82-7.53-13.91-4.8.54-1.58 13.97 4.63-.59 1.76Zm2.42-7.67-14.15-4.04.45-1.61 14.2 3.86-.5 1.79Zm2-7.79-14.34-3.27.36-1.63 14.38 3.09-.4 1.81Zm1.57-7.89-14.5-2.49.27-1.65 14.53 2.31-.3 1.83Zm1.15-7.97-14.61-1.71.18-1.66 14.63 1.52-.2 1.84Zm.72-8-14.68-.93.1-1.67 14.69.75-.11 1.85Zm.3-8.02-14.71-.17v-1.68h14.72v1.85Zm-14.81-7.45-.07-1.68 14.69-.74.08 1.85-14.7.57Zm-.46-7.27-.16-1.68 14.64-1.45.17 1.84-14.66 1.29Zm-.81-7.26-.24-1.67L72.2 94.1l.26 1.82-14.58 1.98Zm-1.15-7.22-.31-1.66 14.45-2.79.34 1.81-14.47 2.64Zm-1.47-7.18-.38-1.65 14.31-3.41.42 1.79-14.34 3.27Zm-1.78-7.12-.45-1.63 14.16-4 .49 1.77-14.2 3.87Zm-2.08-7.05-.52-1.61 13.99-4.56.56 1.74-14.03 4.44Zm-2.36-6.98-.58-1.59 13.8-5.1.63 1.72-13.84 4.98Zm-2.63-6.89-.64-1.57 13.6-5.61.69 1.69-13.65 5.5Zm-2.88-6.79-.7-1.55 13.39-6.11.75 1.66-13.44 6Zm-3.13-6.68-.76-1.53 13.16-6.59.81 1.64-13.21 6.48Zm-3.37-6.57-.81-1.5 12.91-7.06.87 1.61-12.97 6.95Zm-3.6-6.43-.86-1.46 12.63-7.54.93 1.58L33.43 29Zm-3.84-6.28-.92-1.42 12.31-8.06 1 1.55-12.39 7.93Zm-4.06-6.01-.9-1.22L36.28 6.5s.43.55 1.19 1.61L25.53 16.7Z" data-name="Path 73"/>
</symbol>
<symbol id="spritesheet-33" viewBox="0 0 100 100"><g fill="none" stroke="#c7c7c7" stroke-linecap="round" stroke-linejoin="round" stroke-width="6.95" data-name="uuid-aa8f506a-f647-4abc-b6bb-d54c7a4928ac"><path d="M91.36 50c0 22.85-18.51 41.36-41.36 41.36S8.64 72.85 8.64 50 27.16 8.64 50 8.64 91.36 27.15 91.36 50h0Z" data-name="uuid-dda417fd-509d-46cf-910c-20097d487b3f"/><path d="M50.01 33.46v33.09" data-name="uuid-ef09466d-c817-4560-b25c-087ff1ac7850"/><path d="M33.46 50h33.09" data-name="uuid-83afecf7-6894-4aff-82fe-215d596c041a"/></g>
</symbol>
<symbol id="spritesheet-34" viewBox="0 0 100 100"><path fill="#cb3434" d="M48.35 47.52c-1.06 2.13-2.13 4.24-3.13 6.36-2.86 6.15-5.77 12.31-8.58 18.5a22.557 22.557 0 0 0-.5 18.94c.48 1.1 1.1 2.13 1.69 3.19.44.56.44 1.34 0 1.89-.5.52-1.31.57-1.86.12a29.203 29.203 0 0 1-15.13-22.79c-.74-7.47.92-14.98 4.74-21.45 1.63-2.93 3.58-5.68 5.45-8.43A74.319 74.319 0 0 0 42.3 19.27c1.19-4.73 1.65-9.6 1.39-14.47-.1-.6.2-1.2.74-1.48.55-.27 1.2-.15 1.63.3 3.74 3.1 6.73 7.01 8.75 11.42a40.832 40.832 0 0 1 3.96 17.75c-.1 3.31.19 6.62.89 9.86.34 1.34.87 2.63 1.57 3.81.83 1.43 2.04 1.33 2.69-.18.53-1.31.9-2.68 1.06-4.08.13-1.49.16-2.98.09-4.47 0-.68.09-1.27.77-1.6.6-.27 1.31-.1 1.72.42 2.7 2.64 4.86 5.77 6.36 9.23a53.396 53.396 0 0 1 5.41 24.68 30.5 30.5 0 0 1-6.1 17.96 28.839 28.839 0 0 1-9.7 7.99c-.55.38-1.3.29-1.75-.21-.44-.44-.51-1.11-.18-1.63 3.26-5.64 3.7-12.48 1.21-18.5-1.24-3.5-3.01-6.8-5.25-9.77a62.006 62.006 0 0 1-8.91-18.02c-.07-.23-.15-.46-.24-.68 0-.03-.06-.06-.15-.12l.07.04Z" data-name="uuid-1e448002-2e8d-43c3-a30b-edb8000de63b"/>
</symbol>
<symbol id="spritesheet-35" viewBox="0 0 100 100"><g fill="none" stroke="#c7c7c7" stroke-linecap="round" stroke-linejoin="round" stroke-width="7.23" data-name="uuid-51681091-2a63-43a0-8bd2-deb35ea9800d"><path d="M92.77 54c0 23.78-19.27 43.06-43.06 43.06S6.66 77.78 6.66 54s19.28-43.06 43.06-43.06S92.78 30.21 92.78 54h0Z" data-name="uuid-cc6b921c-fc32-423a-b3bf-8a5b370701e6"/><path d="M32.5 54h34.44" data-name="uuid-4fccd1eb-a549-4082-b596-c78d856f6784"/></g>
</symbol>
<symbol id="spritesheet-36" viewBox="0 0 100 100"><path fill="#43be5f" d="M71.79 49.42c.58.69.92 1.54.97 2.43 0 .91-.34 1.79-.97 2.45-.64.65-1.53 1.01-2.45.97h-7.32l-4.98-4.88-4.49 6.84 10.24 20.02c.34.43.57.93.68 1.46.13.38.19.78.2 1.18a4.45 4.45 0 0 1-1.36 3.24 4.488 4.488 0 0 1-6.35.1l-.1-.1a.8.8 0 0 1-.39-.38c-.41-.48-.67-1.05-.78-1.67l-8.5-16.4-2.83 10.94H26.85a4.83 4.83 0 0 1-3.13-1.37 4.346 4.346 0 0 1-1.27-3.24c-.04-1.2.42-2.37 1.27-3.22a3.79 3.79 0 0 1 2.74-1.27H37l3.03-12.5 4.97-8.4h-4.97l-4.11 5.07-.78.9a3.32 3.32 0 0 1-4.69-.2c-.65-.6-1.01-1.46-.97-2.34 0-.54.1-1.07.3-1.56l.78-.98 6.07-8.4h14.69a6.873 6.873 0 0 1-1.95-4.87c-.1-3.78 2.88-6.93 6.66-7.03h.28c1.85-.03 3.62.71 4.88 2.06a6.855 6.855 0 0 1 2.15 4.98 6.55 6.55 0 0 1-2.15 4.88c-.91.99-2.1 1.67-3.41 1.97l7.27 8.36h4.3c.91.02 1.78.36 2.45.98h-.02ZM20.14 29.31c-3.23 3.53-5.09 8.1-5.25 12.88-.06.43-.08.86-.07 1.29-.05 4.43 1.31 8.76 3.88 12.37.38.53 1.11.65 1.64.27.53-.38.65-1.11.27-1.64a18.731 18.731 0 0 1-3.45-11.02c0-.35.01-.71.06-1.05.13-4.29 1.78-8.39 4.67-11.56.42-.5.36-1.23-.14-1.65-.48-.41-1.19-.36-1.62.1Zm59.75 0c-.43-.48-1.17-.52-1.65-.1s-.52 1.17-.1 1.65c2.88 3.17 4.55 7.25 4.73 11.53v1.09c.04 3.95-1.17 7.8-3.45 11.02-.37.53-.25 1.26.28 1.64.2.14.44.22.68.21.38 0 .73-.18.95-.49 2.57-3.61 3.93-7.94 3.88-12.37v-1.15c-.19-4.83-2.08-9.45-5.33-13.03h.01ZM10.31 24.1a28.692 28.692 0 0 0-6.56 18.03c-.06.35-.09.71-.08 1.06a29.491 29.491 0 0 0 5.29 17.29c.37.53 1.11.66 1.64.29.53-.37.66-1.11.29-1.64a27.2 27.2 0 0 1-4.87-15.95c0-.27.01-.54.06-.8.03-6.14 2.18-12.08 6.07-16.83.39-.52.29-1.26-.24-1.64-.49-.37-1.18-.29-1.59.16v.02h-.01Zm79.38 0c-.41-.5-1.14-.58-1.64-.17-.5.41-.58 1.14-.17 1.64a27.225 27.225 0 0 1 6.14 16.81v.83c.1 5.7-1.61 11.28-4.87 15.95-.37.53-.24 1.26.28 1.64.2.14.43.22.67.21.38 0 .74-.18.96-.5a29.442 29.442 0 0 0 5.29-17.29v-.85A29.5 29.5 0 0 0 89.7 24.1Z" data-name="uuid-c0d2bbc3-3159-4c70-a8c2-80cecbf34f57"/>
</symbol></svg>