<svg xmlns="http://www.w3.org/2000/svg" data-name="Layer 1" viewBox="0 0 100 225.12"><defs><linearGradient id="a" x1="-659.13" x2="-659.13" y1="8.93" y2="8.34" gradientTransform="matrix(83.85 0 0 -355.93 55318.91 3184.17)" gradientUnits="userSpaceOnUse"><stop offset="0" stop-color="#ef1414" stop-opacity=".87"/><stop offset="1" stop-color="#3caacb"/></linearGradient></defs><path fill="url(#a)" d="m38.62 215.94-11.51-9.17 1.05-1.33 11.59 9.06-1.14 1.44Zm4.83-6.34-11.89-8.66.98-1.37 11.98 8.54-1.07 1.49Zm4.56-6.56-12.27-8.12.92-1.41 12.36 7.99-1.01 1.54Zm4.25-6.77-12.64-7.53.85-1.45 12.72 7.39-.94 1.59Zm3.93-6.98-12.99-6.9.78-1.49 13.07 6.75-.86 1.64Zm3.58-7.18-13.33-6.23.7-1.52 13.4 6.08-.78 1.68Zm3.21-7.36-13.63-5.53.62-1.55 13.7 5.36-.69 1.72Zm2.82-7.53-13.91-4.8.54-1.58 13.97 4.63-.59 1.76Zm2.42-7.67-14.15-4.04.45-1.61 14.2 3.86-.5 1.79Zm2-7.79-14.34-3.27.36-1.63 14.38 3.09-.4 1.81Zm1.57-7.89-14.5-2.49.27-1.65 14.53 2.31-.3 1.83Zm1.15-7.97-14.61-1.71.18-1.66 14.63 1.52-.2 1.84Zm.72-8-14.68-.93.1-1.67 14.69.75-.11 1.85Zm.3-8.02-14.71-.17v-1.68h14.72v1.85Zm-14.81-7.45-.07-1.68 14.69-.74.08 1.85-14.7.57Zm-.46-7.27-.16-1.68 14.64-1.45.17 1.84-14.66 1.29Zm-.81-7.26-.24-1.67L72.2 94.1l.26 1.82-14.58 1.98Zm-1.15-7.22-.31-1.66 14.45-2.79.34 1.81-14.47 2.64Zm-1.47-7.18-.38-1.65 14.31-3.41.42 1.79-14.34 3.27Zm-1.78-7.12-.45-1.63 14.16-4 .49 1.77-14.2 3.87Zm-2.08-7.05-.52-1.61 13.99-4.56.56 1.74-14.03 4.44Zm-2.36-6.98-.58-1.59 13.8-5.1.63 1.72-13.84 4.98Zm-2.63-6.89-.64-1.57 13.6-5.61.69 1.69-13.65 5.5Zm-2.88-6.79-.7-1.55 13.39-6.11.75 1.66-13.44 6Zm-3.13-6.68-.76-1.53 13.16-6.59.81 1.64-13.21 6.48Zm-3.37-6.57-.81-1.5 12.91-7.06.87 1.61-12.97 6.95Zm-3.6-6.43-.86-1.46 12.63-7.54.93 1.58L33.43 29Zm-3.84-6.28-.92-1.42 12.31-8.06 1 1.55-12.39 7.93Zm-4.06-6.01-.9-1.22L36.28 6.5s.43.55 1.19 1.61L25.53 16.7Z" data-name="Path 73"/></svg>