<svg xmlns="http://www.w3.org/2000/svg" data-name="Layer 1" viewBox="0 0 100 100"><path fill="#0067ab" d="M71.76 45.41c.58.68.92 1.52.97 2.41 0 .9-.34 1.77-.97 2.42-.64.64-1.53.99-2.44.96h-7.31l-4.98-4.83-4.49 6.76 10.23 19.8c.34.42.58.92.68 1.45.12.38.19.77.2 1.16a4.34 4.34 0 0 1-1.36 3.19c-1.72 1.76-4.56 1.8-6.34.1l-.1-.1a.76.76 0 0 1-.39-.38c-.4-.47-.68-1.04-.79-1.65l-8.49-16.22-2.84 10.81H26.86a4.816 4.816 0 0 1-3.12-1.36c-.85-.84-1.31-2-1.27-3.19-.04-1.19.42-2.34 1.27-3.18.7-.77 1.69-1.23 2.73-1.26H37l3.03-12.36 4.98-8.31h-4.98l-4.11 5.02-.79.88a3.356 3.356 0 0 1-4.69-.2c-.65-.6-1.01-1.45-.97-2.33 0-.53.09-1.06.3-1.55l.79-.97 6.05-8.31h14.67a6.747 6.747 0 0 1-1.94-4.82c-.11-3.74 2.87-6.85 6.65-6.96h.28c1.84-.03 3.62.71 4.88 2.04a6.777 6.777 0 0 1 2.15 4.92c.01 1.84-.77 3.6-2.15 4.83-.91.97-2.1 1.65-3.41 1.95L65 44.4h4.29c.91.02 1.78.36 2.44.97v.02Zm-51.6-19.9a19.726 19.726 0 0 0-5.24 12.74c-.06.42-.08.85-.07 1.28-.05 4.38 1.31 8.66 3.87 12.23.38.52 1.11.64 1.64.27.53-.37.65-1.1.28-1.62-2.28-3.18-3.49-7-3.45-10.9 0-.35.01-.69.06-1.04a17.64 17.64 0 0 1 4.67-11.45c.43-.48.39-1.21-.09-1.64a1.17 1.17 0 0 0-1.65.09v.02Zm59.69 0c-.41-.5-1.14-.57-1.64-.17s-.58 1.13-.17 1.63c.02.03.05.06.07.08 2.87 3.14 4.54 7.17 4.72 11.4v1.08c.04 3.9-1.17 7.71-3.45 10.9a1.159 1.159 0 0 0 .96 1.83c.38 0 .74-.18.95-.49 2.56-3.57 3.92-7.85 3.88-12.23V38.4c-.19-4.78-2.08-9.34-5.33-12.89h.01Zm-69.51-5.14a28.208 28.208 0 0 0-6.55 17.84c-.06.35-.09.7-.08 1.05A28.959 28.959 0 0 0 9 56.36c.35.54 1.08.69 1.62.34.54-.35.7-1.07.34-1.61-.01-.02-.03-.04-.04-.06a26.769 26.769 0 0 1-4.87-15.77c0-.27.02-.53.06-.79a26.27 26.27 0 0 1 6.06-16.64c.41-.5.33-1.23-.18-1.64-.51-.4-1.25-.33-1.66.17Zm79.3 0c-.41-.5-1.14-.57-1.64-.17-.5.4-.58 1.13-.17 1.63 3.88 4.7 6.04 10.56 6.13 16.63v.81c.09 5.63-1.61 11.15-4.87 15.77-.37.52-.24 1.24.28 1.62.19.14.43.21.67.21.38 0 .74-.18.96-.49a28.938 28.938 0 0 0 5.29-17.1v-.84a28.944 28.944 0 0 0-6.65-18.06Z" data-name="Path 92"/></svg>