<svg xmlns="http://www.w3.org/2000/svg" data-name="Layer 1" viewBox="0 0 100 100"><path fill="#3caacb" d="m10.42 33.84 14.12 7.61-9.17 2.3c-1.3.27-2.14 1.56-1.87 2.86 0 .04.02.09.03.13a2.58 2.58 0 0 0 2.52 1.81c.23.01.46-.01.69-.08l14.2-3.56 13.87 7.44-13.85 7.48-14.2-3.56c-1.36-.38-2.77.38-3.2 1.72-.34 1.3.44 2.63 1.74 2.97.03 0 .06.01.09.02l9.17 2.3-14.12 7.59a2.337 2.337 0 0 0-.96 3.31c.5.76 1.36 1.21 2.27 1.2.46 0 .91-.11 1.31-.33l14.12-7.61L24.72 76c-.34 1.3.44 2.63 1.74 2.97.03 0 .06.01.09.02.22.05.45.08.69.08 1.15.03 2.18-.71 2.52-1.81l3.8-13.28 13.85-7.48v14.95l-10.4 9.72c-.95.87-1.02 2.35-.15 3.3l.15.15c.5.45 1.16.71 1.83.71.68 0 1.33-.25 1.83-.71l6.7-6.27v15.21c.06 1.4 1.23 2.48 2.63 2.43 1.39.05 2.55-1.04 2.6-2.43V78.34l6.7 6.27c1.05.95 2.65.95 3.69 0 .95-.87 1.02-2.35.15-3.3l-.15-.15-10.4-9.72V56.49l13.85 7.48 3.8 13.27a2.58 2.58 0 0 0 2.52 1.81c.23.01.46-.02.69-.08 1.3-.27 2.14-1.54 1.87-2.84-.01-.05-.02-.1-.04-.15l-2.46-8.56 14.12 7.61c.4.22.85.33 1.31.33.91 0 1.77-.44 2.27-1.2.68-1.09.34-2.52-.75-3.2-.07-.04-.13-.08-.2-.11l-14.12-7.61 9.17-2.3c1.3-.27 2.14-1.54 1.87-2.84-.01-.05-.02-.1-.04-.15a2.643 2.643 0 0 0-3.2-1.72l-14.2 3.56-13.87-7.48 13.85-7.48 14.2 3.56c.22.05.45.08.69.08 1.15.03 2.18-.71 2.52-1.81.34-1.3-.44-2.63-1.74-2.97-.03 0-.06-.01-.09-.02l-9.17-2.3 14.12-7.61a2.337 2.337 0 0 0 1.06-3.13c-.03-.06-.06-.12-.1-.18a2.715 2.715 0 0 0-3.56-.85l-14.12 7.61 2.46-8.56c.34-1.3-.44-2.63-1.74-2.97-.03 0-.06-.01-.09-.02-1.36-.38-2.77.38-3.2 1.72l-3.8 13.27-13.85 7.48V33.18l10.4-9.72c.95-.87 1.02-2.35.15-3.3l-.15-.15a2.745 2.745 0 0 0-3.69 0l-6.7 6.27V11.11a2.6 2.6 0 0 0-2.76-2.44 2.608 2.608 0 0 0-2.44 2.44v15.21l-6.73-6.27a2.745 2.745 0 0 0-3.69 0c-.95.87-1.02 2.35-.15 3.3l.15.15 10.4 9.72v14.95l-13.87-7.48-3.84-13.28a2.643 2.643 0 0 0-3.2-1.72c-1.3.27-2.14 1.56-1.87 2.86 0 .04.02.09.03.13l2.46 8.56-14.09-7.62a2.713 2.713 0 0 0-3.56.9 2.332 2.332 0 0 0 .96 3.31Z" data-name="Path 17"/></svg>