<svg xmlns="http://www.w3.org/2000/svg" data-name="Layer 1" viewBox="0 0 100 100"><path fill="#0067ab" d="M50.45 8.4c-.3 0-.59.02-.89.09-14.87 3.3-24.37 17.88-21.38 32.81.49 2.87 1.42 5.65 2.75 8.24l-19.88-2.21h-.45a5.117 5.117 0 0 0-5.1 5.11c0 .3.02.59.09.89C8.89 68.2 23.47 77.7 38.4 74.71c2.87-.49 5.65-1.42 8.24-2.76l-2.21 19.88v.45c0 2.82 2.29 5.1 5.11 5.11.3 0 .59-.02.89-.09C65.3 94 74.8 79.42 71.81 64.49c-.49-2.87-1.42-5.65-2.76-8.24l19.88 2.21h.45c2.82 0 5.1-2.29 5.11-5.11 0-.3-.02-.59-.09-.89-3.3-14.87-17.88-24.37-32.81-21.38-2.87.49-5.65 1.42-8.24 2.76l2.21-19.88v-.45c0-2.82-2.29-5.1-5.11-5.11ZM50 47.33a5.56 5.56 0 0 1 0 11.12 5.56 5.56 0 0 1 0-11.12Z" data-name="Path 91"/></svg>