<svg xmlns="http://www.w3.org/2000/svg" data-name="Layer 1" viewBox="0 0 100 100"><path fill="#43be5f" d="M71.79 49.42c.58.69.92 1.54.97 2.43 0 .91-.34 1.79-.97 2.45-.64.65-1.53 1.01-2.45.97h-7.32l-4.98-4.88-4.49 6.84 10.24 20.02c.34.43.57.93.68 1.46.13.38.19.78.2 1.18a4.45 4.45 0 0 1-1.36 3.24 4.488 4.488 0 0 1-6.35.1l-.1-.1a.8.8 0 0 1-.39-.38c-.41-.48-.67-1.05-.78-1.67l-8.5-16.4-2.83 10.94H26.85a4.83 4.83 0 0 1-3.13-1.37 4.346 4.346 0 0 1-1.27-3.24c-.04-1.2.42-2.37 1.27-3.22a3.79 3.79 0 0 1 2.74-1.27H37l3.03-12.5 4.97-8.4h-4.97l-4.11 5.07-.78.9a3.32 3.32 0 0 1-4.69-.2c-.65-.6-1.01-1.46-.97-2.34 0-.54.1-1.07.3-1.56l.78-.98 6.07-8.4h14.69a6.873 6.873 0 0 1-1.95-4.87c-.1-3.78 2.88-6.93 6.66-7.03h.28c1.85-.03 3.62.71 4.88 2.06a6.855 6.855 0 0 1 2.15 4.98 6.55 6.55 0 0 1-2.15 4.88c-.91.99-2.1 1.67-3.41 1.97l7.27 8.36h4.3c.91.02 1.78.36 2.45.98h-.02ZM20.14 29.31c-3.23 3.53-5.09 8.1-5.25 12.88-.06.43-.08.86-.07 1.29-.05 4.43 1.31 8.76 3.88 12.37.38.53 1.11.65 1.64.27.53-.38.65-1.11.27-1.64a18.731 18.731 0 0 1-3.45-11.02c0-.35.01-.71.06-1.05.13-4.29 1.78-8.39 4.67-11.56.42-.5.36-1.23-.14-1.65-.48-.41-1.19-.36-1.62.1Zm59.75 0c-.43-.48-1.17-.52-1.65-.1s-.52 1.17-.1 1.65c2.88 3.17 4.55 7.25 4.73 11.53v1.09c.04 3.95-1.17 7.8-3.45 11.02-.37.53-.25 1.26.28 1.64.2.14.44.22.68.21.38 0 .73-.18.95-.49 2.57-3.61 3.93-7.94 3.88-12.37v-1.15c-.19-4.83-2.08-9.45-5.33-13.03h.01ZM10.31 24.1a28.692 28.692 0 0 0-6.56 18.03c-.06.35-.09.71-.08 1.06a29.491 29.491 0 0 0 5.29 17.29c.37.53 1.11.66 1.64.29.53-.37.66-1.11.29-1.64a27.2 27.2 0 0 1-4.87-15.95c0-.27.01-.54.06-.8.03-6.14 2.18-12.08 6.07-16.83.39-.52.29-1.26-.24-1.64-.49-.37-1.18-.29-1.59.16v.02h-.01Zm79.38 0c-.41-.5-1.14-.58-1.64-.17-.5.41-.58 1.14-.17 1.64a27.225 27.225 0 0 1 6.14 16.81v.83c.1 5.7-1.61 11.28-4.87 15.95-.37.53-.24 1.26.28 1.64.2.14.43.22.67.21.38 0 .74-.18.96-.5a29.442 29.442 0 0 0 5.29-17.29v-.85A29.5 29.5 0 0 0 89.7 24.1Z" data-name="uuid-c0d2bbc3-3159-4c70-a8c2-80cecbf34f57"/></svg>