<svg xmlns="http://www.w3.org/2000/svg" data-name="Layer 1" viewBox="0 0 100 100"><path fill="#cb3434" d="M48.35 47.52c-1.06 2.13-2.13 4.24-3.13 6.36-2.86 6.15-5.77 12.31-8.58 18.5a22.557 22.557 0 0 0-.5 18.94c.48 1.1 1.1 2.13 1.69 3.19.44.56.44 1.34 0 1.89-.5.52-1.31.57-1.86.12a29.203 29.203 0 0 1-15.13-22.79c-.74-7.47.92-14.98 4.74-21.45 1.63-2.93 3.58-5.68 5.45-8.43A74.319 74.319 0 0 0 42.3 19.27c1.19-4.73 1.65-9.6 1.39-14.47-.1-.6.2-1.2.74-1.48.55-.27 1.2-.15 1.63.3 3.74 3.1 6.73 7.01 8.75 11.42a40.832 40.832 0 0 1 3.96 17.75c-.1 3.31.19 6.62.89 9.86.34 1.34.87 2.63 1.57 3.81.83 1.43 2.04 1.33 2.69-.18.53-1.31.9-2.68 1.06-4.08.13-1.49.16-2.98.09-4.47 0-.68.09-1.27.77-1.6.6-.27 1.31-.1 1.72.42 2.7 2.64 4.86 5.77 6.36 9.23a53.396 53.396 0 0 1 5.41 24.68 30.5 30.5 0 0 1-6.1 17.96 28.839 28.839 0 0 1-9.7 7.99c-.55.38-1.3.29-1.75-.21-.44-.44-.51-1.11-.18-1.63 3.26-5.64 3.7-12.48 1.21-18.5-1.24-3.5-3.01-6.8-5.25-9.77a62.006 62.006 0 0 1-8.91-18.02c-.07-.23-.15-.46-.24-.68 0-.03-.06-.06-.15-.12l.07.04Z" data-name="uuid-1e448002-2e8d-43c3-a30b-edb8000de63b"/></svg>